<svg id="visual" viewBox="0 0 960 540" width="960" height="540" xmlns="http://www.w3.org/2000/svg" xmlns:xlink="http://www.w3.org/1999/xlink" version="1.1"><rect x="0" y="0" width="960" height="540" fill="#fcfcfc"></rect><path d="M0 371L22.8 369.7C45.7 368.3 91.3 365.7 137 361.2C182.7 356.7 228.3 350.3 274 345.7C319.7 341 365.3 338 411.2 339.2C457 340.3 503 345.7 548.8 356.3C594.7 367 640.3 383 686 382.2C731.7 381.3 777.3 363.7 823 354.2C868.7 344.7 914.3 343.3 937.2 342.7L960 342L960 541L937.2 541C914.3 541 868.7 541 823 541C777.3 541 731.7 541 686 541C640.3 541 594.7 541 548.8 541C503 541 457 541 411.2 541C365.3 541 319.7 541 274 541C228.3 541 182.7 541 137 541C91.3 541 45.7 541 22.8 541L0 541Z" fill="#fbfbf0"></path><path d="M0 428L22.8 424.7C45.7 421.3 91.3 414.7 137 404.8C182.7 395 228.3 382 274 375.7C319.7 369.3 365.3 369.7 411.2 374.8C457 380 503 390 548.8 392.5C594.7 395 640.3 390 686 382.7C731.7 375.3 777.3 365.7 823 362C868.7 358.3 914.3 360.7 937.2 361.8L960 363L960 541L937.2 541C914.3 541 868.7 541 823 541C777.3 541 731.7 541 686 541C640.3 541 594.7 541 548.8 541C503 541 457 541 411.2 541C365.3 541 319.7 541 274 541C228.3 541 182.7 541 137 541C91.3 541 45.7 541 22.8 541L0 541Z" fill="#f4f2e1"></path><path d="M0 421L22.8 427.3C45.7 433.7 91.3 446.3 137 448.7C182.7 451 228.3 443 274 440.2C319.7 437.3 365.3 439.7 411.2 433.8C457 428 503 414 548.8 411C594.7 408 640.3 416 686 421.2C731.7 426.3 777.3 428.7 823 434.5C868.7 440.3 914.3 449.7 937.2 454.3L960 459L960 541L937.2 541C914.3 541 868.7 541 823 541C777.3 541 731.7 541 686 541C640.3 541 594.7 541 548.8 541C503 541 457 541 411.2 541C365.3 541 319.7 541 274 541C228.3 541 182.7 541 137 541C91.3 541 45.7 541 22.8 541L0 541Z" fill="#eee8d3"></path><path d="M0 437L22.8 441.2C45.7 445.3 91.3 453.7 137 456.5C182.7 459.3 228.3 456.7 274 458.3C319.7 460 365.3 466 411.2 469.8C457 473.7 503 475.3 548.8 469.7C594.7 464 640.3 451 686 445.3C731.7 439.7 777.3 441.3 823 445.3C868.7 449.3 914.3 455.7 937.2 458.8L960 462L960 541L937.2 541C914.3 541 868.7 541 823 541C777.3 541 731.7 541 686 541C640.3 541 594.7 541 548.8 541C503 541 457 541 411.2 541C365.3 541 319.7 541 274 541C228.3 541 182.7 541 137 541C91.3 541 45.7 541 22.8 541L0 541Z" fill="#e9dfc5"></path><path d="M0 483L22.8 483C45.7 483 91.3 483 137 487.2C182.7 491.3 228.3 499.7 274 501.7C319.7 503.7 365.3 499.3 411.2 498C457 496.7 503 498.3 548.8 500.3C594.7 502.3 640.3 504.7 686 502.2C731.7 499.7 777.3 492.3 823 490.5C868.7 488.7 914.3 492.3 937.2 494.2L960 496L960 541L937.2 541C914.3 541 868.7 541 823 541C777.3 541 731.7 541 686 541C640.3 541 594.7 541 548.8 541C503 541 457 541 411.2 541C365.3 541 319.7 541 274 541C228.3 541 182.7 541 137 541C91.3 541 45.7 541 22.8 541L0 541Z" fill="#e4d5b7"></path></svg>